--40001LOG 06:22:42:492390700 Waiting for file /home/seluser/videos/vid_chrome_or_firefox_40001* to be created...
Won't start video recording due to VIDEO env var false
ffmpeg version 2.8.17-0ubuntu0.1 Copyright (c) 2000-2020 the FFmpeg developers
  built with gcc 5.4.0 (Ubuntu 5.4.0-6ubuntu1~16.04.12) 20160609
  configuration: --prefix=/usr --extra-version=0ubuntu0.1 --build-suffix=-ffmpeg --toolchain=hardened --libdir=/usr/lib/x86_64-linux-gnu --incdir=/usr/include/x86_64-linux-gnu --cc=cc --cxx=g++ --enable-gpl --enable-shared --disable-stripping --disable-decoder=libopenjpeg --disable-decoder=libschroedinger --enable-avresample --enable-avisynth --enable-gnutls --enable-ladspa --enable-libass --enable-libbluray --enable-libbs2b --enable-libcaca --enable-libcdio --enable-libflite --enable-libfontconfig --enable-libfreetype --enable-libfribidi --enable-libgme --enable-libgsm --enable-libmodplug --enable-libmp3lame --enable-libopenjpeg --enable-libopus --enable-libpulse --enable-librtmp --enable-libschroedinger --enable-libshine --enable-libsnappy --enable-libsoxr --enable-libspeex --enable-libssh --enable-libtheora --enable-libtwolame --enable-libvorbis --enable-libvpx --enable-libwavpack --enable-libwebp --enable-libx265 --enable-libxvid --enable-libzvbi --enable-openal --enable-opengl --enable-x11grab --enable-libdc1394 --enable-libiec61883 --enable-libzmq --enable-frei0r --enable-libx264 --enable-libopencv
  libavutil      54. 31.100 / 54. 31.100
  libavcodec     56. 60.100 / 56. 60.100
  libavformat    56. 40.101 / 56. 40.101
  libavdevice    56.  4.100 / 56.  4.100
  libavfilter     5. 40.101 /  5. 40.101
  libavresample   2.  1.  0 /  2.  1.  0
  libswscale      3.  1.101 /  3.  1.101
  libswresample   1.  2.101 /  1.  2.101
  libpostproc    53.  3.100 / 53.  3.100
Input #0, x11grab, from ':84.0':
  Duration: N/A, start: 1604463762.628425, bitrate: N/A
    Stream #0:0: Video: rawvideo (BGR[0] / 0x524742), bgr0, 1366x768, 10 fps, 10 tbr, 1000k tbn, 10 tbc
[libx264 @ 0x1ae1320] using cpu capabilities: MMX2 SSE2Fast SSSE3 SSE4.2 AVX FMA3 AVX2 LZCNT BMI2
[libx264 @ 0x1ae1320] profile Constrained Baseline, level 3.2
[libx264 @ 0x1ae1320] 264 - core 148 r2643 5c65704 - H.264/MPEG-4 AVC codec - Copyleft 2003-2015 - http://www.videolan.org/x264.html - options: cabac=0 ref=1 deblock=0:0:0 analyse=0:0 me=dia subme=0 psy=1 psy_rd=1.00:0.00 mixed_ref=0 me_range=16 chroma_me=1 trellis=0 8x8dct=0 cqm=0 deadzone=21,11 fast_pskip=1 chroma_qp_offset=0 threads=3 lookahead_threads=1 sliced_threads=0 nr=0 decimate=1 interlaced=0 bluray_compat=0 constrained_intra=0 bframes=0 weightp=0 keyint=250 keyint_min=10 scenecut=0 intra_refresh=0 rc=crf mbtree=0 crf=23.0 qcomp=0.60 qpmin=0 qpmax=69 qpstep=4 ip_ratio=1.40 aq=0
Output #0, matroska, to '/home/seluser/videos/vid_chrome_or_firefox_40001.mkv':
  Metadata:
    encoder         : Lavf56.40.101
    Stream #0:0: Video: h264 (libx264) (H264 / 0x34363248), yuv420p, 1366x768, q=-1--1, 10 fps, 1k tbn, 10 tbc
    Metadata:
      encoder         : Lavc56.60.100 libx264
Stream mapping:
  Stream #0:0 -> #0:0 (rawvideo (native) -> h264 (libx264))
Press [q] to stop, [?] for help
[swscaler @ 0x1aecca0] Warning: data is not aligned! This can lead to a speedloss
frame=    7 fps=0.0 q=10.0 size=      24kB time=00:00:00.30 bitrate= 656.7kbits/s    
frame=   13 fps= 12 q=9.0 size=      28kB time=00:00:00.90 bitrate= 251.9kbits/s    
frame=   18 fps= 11 q=9.0 size=      28kB time=00:00:01.40 bitrate= 165.2kbits/s    
frame=   23 fps= 10 q=9.0 size=      29kB time=00:00:01.90 bitrate= 124.7kbits/s    
frame=   27 fps=9.6 q=9.0 size=      29kB time=00:00:02.30 bitrate= 104.6kbits/s    
frame=   35 fps= 11 q=10.0 size=      39kB time=00:00:03.10 bitrate= 104.3kbits/s    
frame=   41 fps= 11 q=9.0 size=      49kB time=00:00:03.70 bitrate= 108.4kbits/s    
frame=   47 fps= 10 q=9.0 size=      50kB time=00:00:04.30 bitrate=  94.7kbits/s    
frame=   52 fps= 10 q=14.0 size=      51kB time=00:00:04.80 bitrate=  87.1kbits/s    
frame=   58 fps= 10 q=10.0 size=      85kB time=00:00:05.40 bitrate= 128.7kbits/s    
frame=   64 fps= 10 q=9.0 size=      92kB time=00:00:06.00 bitrate= 125.3kbits/s    
frame=   69 fps= 10 q=9.0 size=      93kB time=00:00:06.50 bitrate= 117.1kbits/s    
frame=   75 fps= 10 q=9.0 size=      94kB time=00:00:07.10 bitrate= 108.5kbits/s    
frame=   80 fps= 10 q=9.0 size=      95kB time=00:00:07.60 bitrate= 102.7kbits/s    
frame=   86 fps= 10 q=9.0 size=      96kB time=00:00:08.20 bitrate=  95.9kbits/s    
frame=   92 fps= 10 q=9.0 size=      98kB time=00:00:08.80 bitrate=  91.0kbits/s    
frame=   98 fps= 10 q=10.0 size=     115kB time=00:00:09.40 bitrate= 100.5kbits/s    
frame=  103 fps= 10 q=9.0 size=     122kB time=00:00:09.90 bitrate= 100.6kbits/s    
frame=  109 fps= 10 q=9.0 size=     123kB time=00:00:10.50 bitrate=  95.9kbits/s    
frame=  115 fps= 10 q=9.0 size=     124kB time=00:00:11.10 bitrate=  91.5kbits/s    
frame=  120 fps= 10 q=9.0 size=     125kB time=00:00:11.60 bitrate=  88.5kbits/s    
frame=  126 fps= 10 q=9.0 size=     126kB time=00:00:12.20 bitrate=  84.6kbits/s    
frame=  131 fps= 10 q=9.0 size=     127kB time=00:00:12.70 bitrate=  82.1kbits/s    
frame=  136 fps= 10 q=9.0 size=     128kB time=00:00:13.20 bitrate=  79.6kbits/s    
frame=  141 fps= 10 q=9.0 size=     129kB time=00:00:13.70 bitrate=  77.3kbits/s    
frame=  147 fps= 10 q=9.0 size=     131kB time=00:00:14.30 bitrate=  74.9kbits/s    
frame=  153 fps= 10 q=16.0 size=     132kB time=00:00:14.90 bitrate=  72.3kbits/s    
frame=  158 fps= 10 q=13.0 size=     217kB time=00:00:15.40 bitrate= 115.4kbits/s    
frame=  164 fps= 10 q=9.0 size=     244kB time=00:00:16.00 bitrate= 124.9kbits/s    
frame=  169 fps= 10 q=15.0 size=     248kB time=00:00:16.50 bitrate= 123.4kbits/s    
frame=  174 fps= 10 q=17.0 size=     280kB time=00:00:17.00 bitrate= 134.9kbits/s    
frame=  180 fps= 10 q=10.0 size=     315kB time=00:00:17.60 bitrate= 146.4kbits/s    
frame=  185 fps= 10 q=12.0 size=     342kB time=00:00:18.10 bitrate= 154.7kbits/s    
frame=  191 fps= 10 q=9.0 size=     364kB time=00:00:18.70 bitrate= 159.3kbits/s    
frame=  197 fps= 10 q=9.0 size=     366kB time=00:00:19.30 bitrate= 155.2kbits/s    
frame=  203 fps= 10 q=11.0 size=     382kB time=00:00:19.90 bitrate= 157.4kbits/s    
frame=  208 fps= 10 q=12.0 size=     435kB time=00:00:20.40 bitrate= 174.8kbits/s    
frame=  213 fps= 10 q=9.0 size=     457kB time=00:00:20.90 bitrate= 179.2kbits/s    
frame=  219 fps= 10 q=9.0 size=     462kB time=00:00:21.50 bitrate= 176.0kbits/s    
frame=  224 fps= 10 q=9.0 size=     466kB time=00:00:22.00 bitrate= 173.6kbits/s    
frame=  230 fps= 10 q=11.0 size=     599kB time=00:00:22.60 bitrate= 217.2kbits/s    
frame=  235 fps= 10 q=9.0 size=     658kB time=00:00:23.10 bitrate= 233.5kbits/s    
frame=  241 fps= 10 q=9.0 size=     669kB time=00:00:23.70 bitrate= 231.4kbits/s    
frame=  247 fps= 10 q=9.0 size=     670kB time=00:00:24.30 bitrate= 225.8kbits/s    
frame=  253 fps= 10 q=7.0 size=     671kB time=00:00:24.90 bitrate= 220.6kbits/s    
frame=  259 fps= 10 q=12.0 size=     870kB time=00:00:25.50 bitrate= 279.6kbits/s    
frame=  264 fps= 10 q=12.0 size=     907kB time=00:00:26.00 bitrate= 285.6kbits/s    
frame=  270 fps= 10 q=9.0 size=     921kB time=00:00:26.60 bitrate= 283.8kbits/s    
frame=  275 fps= 10 q=9.0 size=     924kB time=00:00:27.10 bitrate= 279.2kbits/s    
frame=  281 fps= 10 q=9.0 size=     924kB time=00:00:27.70 bitrate= 273.2kbits/s    
frame=  286 fps= 10 q=9.0 size=     924kB time=00:00:28.20 bitrate= 268.4kbits/s    
frame=  291 fps= 10 q=9.0 size=     924kB time=00:00:28.70 bitrate= 263.8kbits/s    
frame=  296 fps= 10 q=9.0 size=     925kB time=00:00:29.20 bitrate= 259.4kbits/s    
frame=  302 fps= 10 q=9.0 size=     925kB time=00:00:29.80 bitrate= 254.3kbits/s    
frame=  308 fps= 10 q=9.0 size=     925kB time=00:00:30.40 bitrate= 249.3kbits/s    
frame=  314 fps= 10 q=9.0 size=     925kB time=00:00:31.00 bitrate= 244.5kbits/s    
frame=  320 fps= 10 q=9.0 size=     926kB time=00:00:31.60 bitrate= 240.0kbits/s    
frame=  326 fps= 10 q=9.0 size=     926kB time=00:00:32.20 bitrate= 235.6kbits/s    
frame=  332 fps= 10 q=9.0 size=     926kB time=00:00:32.80 bitrate= 231.3kbits/s    
frame=  337 fps= 10 q=9.0 size=     926kB time=00:00:33.30 bitrate= 227.9kbits/s    
frame=  342 fps= 10 q=9.0 size=     927kB time=00:00:33.80 bitrate= 224.6kbits/s    
frame=  348 fps= 10 q=9.0 size=     927kB time=00:00:34.40 bitrate= 220.7kbits/s    
frame=  353 fps= 10 q=9.0 size=     927kB time=00:00:34.90 bitrate= 217.7kbits/s    
frame=  359 fps= 10 q=9.0 size=     928kB time=00:00:35.50 bitrate= 214.1kbits/s    
frame=  365 fps= 10 q=9.0 size=     928kB time=00:00:36.10 bitrate= 210.6kbits/s    
frame=  371 fps= 10 q=9.0 size=     928kB time=00:00:36.70 bitrate= 207.2kbits/s    
frame=  376 fps= 10 q=9.0 size=     928kB time=00:00:37.20 bitrate= 204.4kbits/s    
frame=  382 fps= 10 q=9.0 size=     929kB time=00:00:37.80 bitrate= 201.3kbits/s    
frame=  388 fps= 10 q=9.0 size=     929kB time=00:00:38.40 bitrate= 198.2kbits/s    
frame=  393 fps= 10 q=9.0 size=     929kB time=00:00:38.90 bitrate= 195.7kbits/s    
frame=  399 fps= 10 q=9.0 size=     929kB time=00:00:39.50 bitrate= 192.8kbits/s    
frame=  405 fps= 10 q=9.0 size=     930kB time=00:00:40.10 bitrate= 189.9kbits/s    
frame=  411 fps= 10 q=9.0 size=     930kB time=00:00:40.70 bitrate= 187.2kbits/s    
frame=  417 fps= 10 q=10.0 size=     934kB time=00:00:41.30 bitrate= 185.2kbits/s    
frame=  423 fps= 10 q=13.0 size=     952kB time=00:00:41.90 bitrate= 186.1kbits/s    
frame=  428 fps= 10 q=10.0 size=     959kB time=00:00:42.40 bitrate= 185.4kbits/s    
frame=  433 fps= 10 q=19.0 size=     961kB time=00:00:42.90 bitrate= 183.6kbits/s    
frame=  439 fps= 10 q=10.0 size=     997kB time=00:00:43.50 bitrate= 187.8kbits/s    
frame=  444 fps= 10 q=9.0 size=    1002kB time=00:00:44.00 bitrate= 186.5kbits/s    
frame=  450 fps= 10 q=10.0 size=    1002kB time=00:00:44.60 bitrate= 184.1kbits/s    
frame=  455 fps= 10 q=19.0 size=    1003kB time=00:00:45.10 bitrate= 182.2kbits/s    
frame=  460 fps= 10 q=18.0 size=    1100kB time=00:00:45.60 bitrate= 197.6kbits/s    
frame=  466 fps= 10 q=10.0 size=    1196kB time=00:00:46.20 bitrate= 212.1kbits/s    
frame=  471 fps= 10 q=9.0 size=    1209kB time=00:00:46.70 bitrate= 212.0kbits/s    
frame=  477 fps= 10 q=9.0 size=    1209kB time=00:00:47.30 bitrate= 209.4kbits/s    
frame=  483 fps= 10 q=9.0 size=    1210kB time=00:00:47.90 bitrate= 206.9kbits/s    
frame=  489 fps= 10 q=9.0 size=    1210kB time=00:00:48.50 bitrate= 204.5kbits/s    
frame=  495 fps= 10 q=9.0 size=    1211kB time=00:00:49.10 bitrate= 202.0kbits/s    
frame=  501 fps= 10 q=9.0 size=    1211kB time=00:00:49.70 bitrate= 199.7kbits/s    
frame=  507 fps= 10 q=12.0 size=    1334kB time=00:00:50.30 bitrate= 217.2kbits/s    
frame=  512 fps= 10 q=9.0 size=    1334kB time=00:00:50.80 bitrate= 215.1kbits/s    
frame=  517 fps= 10 q=9.0 size=    1334kB time=00:00:51.30 bitrate= 213.1kbits/s    
frame=  523 fps= 10 q=9.0 size=    1335kB time=00:00:51.90 bitrate= 210.7kbits/s    
frame=  529 fps= 10 q=9.0 size=    1335kB time=00:00:52.50 bitrate= 208.3kbits/s    
frame=  534 fps= 10 q=17.0 size=    1335kB time=00:00:53.00 bitrate= 206.4kbits/s    
frame=  540 fps= 10 q=11.0 size=    1364kB time=00:00:53.60 bitrate= 208.5kbits/s    
--40001LOG 06:23:36:586416400 Trapped SIGTERM or SIGINT so shutting down ffmpeg gracefully...
--40001LOG 06:23:36:601124100 Will kill VID_TOOL_PID=599 ...
frame=  541 fps= 10 q=-1.0 Lsize=    1371kB time=00:00:54.10 bitrate= 207.5kbits/s    
video:1366kB audio:0kB subtitle:0kB other streams:0kB global headers:0kB muxing overhead: 0.318925%
[libx264 @ 0x1ae1320] frame I:3     Avg QP:11.33  size:114711
[libx264 @ 0x1ae1320] frame P:538   Avg QP:10.00  size:  1960
[libx264 @ 0x1ae1320] mb I  I16..4: 100.0%  0.0%  0.0%
[libx264 @ 0x1ae1320] mb P  I16..4:  1.4%  0.0%  0.0%  P16..4:  1.7%  0.0%  0.0%  0.0%  0.0%    skip:96.9%
[libx264 @ 0x1ae1320] coded y,uvDC,uvAC intra: 18.1% 12.4% 11.5% inter: 0.7% 0.8% 0.5%
[libx264 @ 0x1ae1320] i16 v,h,dc,p: 70% 27%  2%  1%
[libx264 @ 0x1ae1320] i8c dc,h,v,p: 79% 17%  3%  1%
[libx264 @ 0x1ae1320] kb/s:206.80
Exiting normally, received signal 2.
--40001LOG 06:23:37:641755400 Tried to kill -SIGTERM VID_TOOL_PID=599
--40001LOG 06:23:37:660039300 Waiting up to 6s for VID_TOOL_PID=599 to end with SIGTERM...
--40001LOG 06:23:37:692302900 wait_pid successfully managed to SIGTERM:VID_TOOL_PID=599 within less than 6s
--40001LOG 06:23:37:708756000 Will try to fix the videos...
--40001LOG 06:23:38:230634700 Fixing perms for /home/seluser/videos/vid_chrome_or_firefox_40001.mkv*
--40001LOG 06:23:38:238116600 Changing video encoding from mkv to mp4...
--40001LOG 06:23:43:124868100 Conversion from mkv to mp4 succeeded!
--40001LOG 06:23:43:148292900 Cleaning up /home/seluser/videos/vid_chrome_or_firefox_40001.mkv ...
--40001LOG 06:23:43:165922300 Optimizing /home/seluser/videos/vid_chrome_or_firefox_40001.mp4 for HTTP streaming...
--40001LOG 06:23:43:253285100 Succeeded to mp4box_retry.sh within 8s
--40001LOG 06:23:43:270330200 ffmpeg shutdown complete.
